<?xml version="1.0" encoding="UTF-8"?>
<svg xmlns="http://www.w3.org/2000/svg" xmlns:xlink="http://www.w3.org/1999/xlink" width="2009" height="2362" viewBox="0 0 2009 2362">
<style>
  path { fill: currentColor; }
</style>
<path fill-rule="nonzero" fill="rgb(0%, 0%, 0%)" fill-opacity="1" d="M 768.601562 1.851562 C 763.527344 2.570312 745.035156 5.109375 726.910156 7.28125 C 622.496094 20.339844 480.015625 71.820312 366.175781 137.441406 C 258.496094 199.441406 175.835938 271.578125 103.6875 367.300781 C 59.820312 425.671875 28.277344 497.808594 11.964844 577.941406 C 2.898438 623.980469 2.898438 760.300781 11.964844 817.21875 C 27.191406 912.570312 59.09375 1036.199219 117.828125 1228.710938 C 178.011719 1425.214844 197.953125 1503.886719 212.816406 1603.949219 C 221.515625 1664.132812 221.515625 1790.664062 212.453125 1848.671875 C 187.796875 2010.003906 135.589844 2133.996094 32.992188 2277.566406 C 14.863281 2302.941406 0 2324.335938 0 2325.421875 C 0 2330.496094 64.171875 2268.863281 94.984375 2235.148438 C 208.464844 2108.980469 279.523438 1988.976562 317.230469 1859.910156 C 322.304688 1843.230469 327.378906 1828.367188 328.46875 1827.277344 C 329.917969 1826.191406 329.917969 1849.394531 328.832031 1879.484375 C 325.207031 1965.410156 309.253906 2028.496094 273.363281 2098.828125 C 246.894531 2150.671875 213.902344 2193.089844 156.257812 2250.011719 C 129.429688 2276.476562 108.765625 2298.230469 110.578125 2298.230469 C 112.027344 2298.230469 131.605469 2288.078125 153.71875 2276.117188 C 202.300781 2249.285156 257.046875 2212.308594 293.664062 2181.488281 L 320.855469 2159.011719 L 302.367188 2180.402344 C 267.199219 2221.367188 197.589844 2285.539062 147.917969 2323.246094 C 120.367188 2343.910156 97.886719 2361.3125 97.886719 2361.675781 C 97.886719 2362.402344 142.480469 2340.648438 196.863281 2313.820312 C 300.554688 2262.335938 357.835938 2231.160156 374.148438 2217.382812 C 396.625 2198.890625 432.519531 2111.878906 444.847656 2046.984375 C 449.558594 2020.882812 451.011719 1994.777344 451.011719 1928.429688 C 451.011719 1852.296875 449.921875 1837.792969 441.222656 1792.472656 C 436.144531 1764.558594 430.707031 1737.730469 429.257812 1732.65625 C 424.183594 1714.164062 434.332031 1731.203125 448.472656 1765.285156 C 504.667969 1897.25 540.199219 2060.761719 546 2211.582031 C 548.898438 2283.730469 542.007812 2279.375 605.453125 2248.199219 C 646.421875 2227.894531 646.785156 2227.167969 651.5 2211.21875 C 660.925781 2178.589844 670.714844 2131.457031 672.890625 2106.078125 C 674.339844 2091.941406 676.878906 2081.789062 678.328125 2083.238281 C 682.679688 2087.589844 692.105469 2145.234375 692.828125 2170.976562 C 693.191406 2183.304688 695.007812 2193.089844 697.179688 2193.089844 C 698.992188 2193.089844 714.945312 2184.027344 732.347656 2172.789062 C 754.464844 2158.648438 763.527344 2150.671875 762.800781 2146.320312 C 762.074219 2143.058594 755.550781 2114.78125 748.664062 2082.875 C 741.414062 2051.335938 736.699219 2022.695312 737.785156 2019.066406 C 738.871094 2015.441406 751.199219 2002.027344 764.617188 1988.976562 C 828.425781 1928.792969 942.261719 1870.785156 1051.03125 1843.230469 C 1105.410156 1829.457031 1188.800781 1817.855469 1194.230469 1823.65625 C 1201.851562 1831.269531 1172.121094 1903.414062 1138.039062 1960.332031 C 1068.429688 2076.347656 1007.519531 2139.433594 907.457031 2199.253906 C 888.96875 2210.492188 872.652344 2220.644531 871.929688 2222.09375 C 866.128906 2231.523438 1004.621094 2230.433594 1063.359375 2220.644531 C 1078.578125 2218.109375 1091.269531 2217.382812 1091.269531 2218.832031 C 1091.269531 2223.183594 1012.230469 2273.214844 973.804688 2293.15625 C 953.5 2303.667969 920.875 2318.894531 900.933594 2327.234375 C 846.550781 2349.710938 846.1875 2349.710938 850.539062 2351.527344 C 857.429688 2354.0625 958.941406 2334.847656 998.820312 2323.246094 C 1140.578125 2282.640625 1274.359375 2199.980469 1360.28125 2100.640625 C 1374.789062 2083.601562 1389.648438 2069.824219 1392.910156 2069.824219 C 1396.539062 2069.824219 1411.398438 2065.835938 1426.628906 2061.125 C 1441.488281 2056.410156 1453.820312 2053.144531 1453.820312 2053.871094 C 1453.820312 2060.398438 1406.320312 2130.007812 1372.609375 2172.789062 C 1352.671875 2198.164062 1366.078125 2189.464844 1395.808594 2157.921875 C 1516.898438 2028.496094 1585.058594 1886.738281 1606.449219 1719.964844 C 1613.699219 1663.046875 1612.25 1548.117188 1603.191406 1491.558594 C 1598.839844 1465.457031 1594.488281 1441.164062 1593.039062 1437.175781 C 1589.050781 1425.214844 1614.789062 1451.679688 1639.078125 1483.582031 C 1689.839844 1550.65625 1714.859375 1630.414062 1714.859375 1724.679688 C 1714.859375 1770.722656 1720.289062 1764.921875 1730.078125 1708.726562 C 1739.511719 1655.433594 1741.679688 1516.214844 1733.351562 1472.34375 C 1730.808594 1457.84375 1729.359375 1445.152344 1730.441406 1444.0625 C 1731.53125 1442.976562 1739.511719 1464.730469 1748.570312 1492.285156 C 1758 1519.835938 1765.25 1538.328125 1765.609375 1533.617188 C 1765.96875 1506.785156 1733.710938 1380.980469 1712.320312 1326.601562 C 1685.128906 1256.988281 1634.371094 1170.699219 1580.351562 1102.179688 C 1565.480469 1083.328125 1550.261719 1064.109375 1546.269531 1058.679688 L 1539.019531 1049.25 L 1549.890625 1057.230469 C 1574.179688 1074.269531 1649.960938 1146.410156 1682.230469 1183.03125 C 1726.460938 1232.699219 1771.769531 1293.238281 1803.320312 1344.359375 C 1817.089844 1366.84375 1829.058594 1384.246094 1829.78125 1383.15625 C 1832.679688 1380.253906 1798.609375 1297.960938 1778.300781 1258.441406 C 1728.269531 1159.820312 1640.890625 1047.441406 1550.980469 963.691406 C 1515.820312 931.421875 1425.539062 854.929688 1357.75 799.820312 C 1336.351562 782.410156 1319.679688 768.269531 1320.398438 768.269531 C 1321.488281 768.269531 1329.460938 770.808594 1338.171875 773.710938 C 1383.851562 790.03125 1446.210938 773.351562 1459.621094 741.078125 C 1465.058594 727.671875 1466.148438 688.871094 1462.160156 647.550781 L 1459.980469 622.890625 L 1453.820312 636.671875 C 1439.679688 667.121094 1413.941406 682.710938 1382.398438 680.539062 C 1357.75 678.359375 1337.441406 664.949219 1327.289062 644.28125 C 1303.730469 594.980469 1336.710938 543.5 1391.820312 543.5 C 1411.761719 543.5 1421.558594 547.121094 1434.960938 559.089844 C 1441.488281 565.25 1442.941406 565.609375 1442.941406 560.898438 C 1442.941406 553.640625 1417.929688 481.5 1403.429688 446.328125 C 1397.261719 431.46875 1394.359375 420.230469 1396.539062 420.230469 C 1408.859375 420.230469 1495.148438 473.519531 1507.121094 488.390625 C 1524.519531 510.140625 1506.75 453.578125 1478.46875 397.390625 C 1458.171875 356.421875 1445.839844 337.929688 1407.050781 290.070312 C 1258.410156 105.53125 1040.878906 -2.140625 821.898438 0.03125 C 797.605469 0.390625 773.675781 1.121094 768.601562 1.851562 Z M 717.847656 191.460938 C 727.632812 193.269531 730.535156 194.71875 725.097656 195.089844 C 720.023438 195.449219 709.507812 198.710938 701.53125 202.691406 L 687.027344 209.949219 L 713.859375 208.5 C 743.226562 206.320312 829.148438 211.761719 846.550781 216.839844 C 853.441406 218.648438 823.710938 220.460938 766.789062 221.910156 C 674.339844 224.089844 638.085938 227.710938 557.601562 244.03125 C 533.308594 249.101562 512.640625 252.730469 511.917969 252 C 511.554688 251.28125 520.621094 242.210938 532.945312 231.339844 C 547.808594 218.648438 553.246094 211.398438 550.347656 209.589844 C 547.808594 208.5 532.585938 208.5 516.632812 210.308594 C 500.679688 211.761719 487.265625 212.488281 486.539062 211.761719 C 483.636719 209.21875 537.296875 199.070312 574.640625 195.449219 C 646.421875 188.558594 693.554688 187.46875 717.847656 191.460938 Z M 353.847656 731.289062 C 393.367188 801.988281 449.195312 874.859375 492.703125 912.210938 C 530.769531 944.839844 581.164062 977.828125 632.648438 1003.199219 C 678.328125 1026.050781 734.523438 1047.441406 748.300781 1047.441406 C 760.628906 1047.441406 762.800781 1051.789062 753.375 1057.230469 C 745.761719 1061.570312 747.214844 1061.941406 764.617188 1059.769531 C 783.832031 1057.589844 784.191406 1057.589844 781.65625 1065.929688 C 780.203125 1070.640625 775.855469 1090.210938 771.867188 1109.070312 C 767.875 1127.921875 763.164062 1149.308594 761.714844 1156.199219 C 752.652344 1192.820312 751.199219 1192.820312 792.167969 1149.679688 C 813.558594 1127.558594 832.046875 1109.070312 833.5 1109.070312 C 834.949219 1109.070312 839.300781 1122.121094 842.925781 1137.710938 C 851.988281 1177.589844 850.902344 1176.5 875.554688 1171.070312 C 902.746094 1164.898438 919.421875 1168.171875 925.949219 1180.859375 C 932.113281 1193.179688 928.851562 1202.609375 911.085938 1224.359375 C 895.855469 1242.851562 895.855469 1242.488281 931.75 1254.820312 C 964.015625 1266.058594 996.648438 1265.691406 1020.210938 1254.089844 C 1055.378906 1237.410156 1079.671875 1202.25 1088.011719 1157.648438 C 1090.179688 1146.050781 1092.359375 1135.539062 1093.078125 1134.808594 C 1093.808594 1134.449219 1101.058594 1137.351562 1109.398438 1142.058594 C 1124.269531 1150.398438 1124.988281 1152.210938 1118.460938 1168.53125 C 1116.289062 1173.609375 1119.191406 1172.519531 1131.148438 1163.820312 C 1139.851562 1157.648438 1147.46875 1153.300781 1148.558594 1154.390625 C 1150.730469 1156.570312 1116.648438 1195.71875 1100.339844 1210.21875 C 1093.441406 1216.390625 1087.640625 1221.820312 1087.640625 1222.910156 C 1087.640625 1226.179688 1130.070312 1213.121094 1151.089844 1203.691406 C 1163.058594 1197.890625 1181.550781 1187.738281 1192.058594 1180.488281 C 1210.910156 1167.441406 1211.640625 1167.441406 1222.148438 1172.878906 C 1231.210938 1177.230469 1232.300781 1179.410156 1228.679688 1183.75 C 1225.410156 1188.109375 1226.5 1188.828125 1235.199219 1188.828125 C 1241 1188.828125 1246.808594 1189.921875 1247.890625 1191.011719 C 1249.339844 1192.089844 1244.628906 1205.140625 1238.101562 1219.648438 C 1217.800781 1263.878906 1182.269531 1361.410156 1172.480469 1400.199219 C 1158.710938 1452.40625 1161.238281 1489.746094 1185.171875 1608.664062 C 1195.320312 1659.417969 1203.660156 1702.925781 1203.660156 1705.460938 C 1203.660156 1708.363281 1196.410156 1710.898438 1183 1712.714844 C 1171.390625 1713.800781 1147.46875 1718.152344 1129.699219 1722.140625 C 1111.941406 1726.128906 1096.710938 1728.300781 1095.621094 1727.578125 C 1094.539062 1726.492188 1101.421875 1722.5 1110.851562 1718.515625 C 1119.910156 1714.527344 1127.519531 1710.539062 1127.519531 1709.8125 C 1127.519531 1706.550781 1083.660156 1715.253906 1055.019531 1723.953125 C 991.933594 1743.53125 906.007812 1795.011719 850.902344 1846.496094 C 843.285156 1853.746094 836.398438 1859.546875 835.675781 1859.546875 C 834.949219 1859.546875 831.683594 1850.84375 828.0625 1840.332031 C 824.796875 1830.179688 811.746094 1797.550781 799.421875 1767.820312 C 786.730469 1738.457031 777.304688 1714.527344 778.03125 1714.527344 C 780.203125 1714.527344 804.496094 1760.207031 814.28125 1783.410156 C 819.722656 1796.464844 825.523438 1808.425781 826.609375 1809.875 C 828.0625 1811.691406 832.773438 1807.339844 837.125 1800.453125 C 848.363281 1782.324219 898.394531 1726.128906 973.445312 1647.089844 C 1044.140625 1572.769531 1082.929688 1526 1113.019531 1480.683594 C 1132.960938 1449.863281 1176.828125 1363.941406 1173.929688 1361.039062 C 1172.839844 1359.949219 1162.328125 1374.453125 1150.730469 1392.582031 C 1083.660156 1496.632812 998.460938 1577.480469 889.691406 1640.929688 C 821.535156 1680.449219 726.910156 1718.152344 695.007812 1718.152344 C 676.878906 1718.152344 676.515625 1717.789062 602.195312 1661.957031 C 578.265625 1643.832031 548.535156 1622.078125 535.84375 1613.011719 C 466.597656 1564.070312 411.855469 1514.398438 382.125 1472.707031 C 353.847656 1433.914062 341.882812 1401.285156 311.792969 1284.910156 C 303.453125 1253 289.675781 1204.789062 280.609375 1177.589844 C 263.570312 1124.660156 262.484375 1119.941406 269.007812 1126.46875 C 274.808594 1132.269531 280.25 1131.910156 278.074219 1126.109375 C 277.351562 1123.929688 280.609375 1117.050781 286.050781 1111.609375 L 295.476562 1101.089844 L 306.714844 1136.621094 L 317.957031 1172.148438 L 336.082031 1172.148438 C 368.347656 1172.878906 375.238281 1188.46875 352.761719 1211.308594 C 345.507812 1218.921875 340.070312 1225.449219 341.160156 1226.179688 C 341.882812 1226.539062 349.859375 1233.058594 358.921875 1239.949219 C 416.570312 1286 468.777344 1275.839844 482.550781 1215.660156 C 486.539062 1197.890625 485.816406 1190.640625 472.398438 1114.511719 C 470.589844 1105.078125 477.476562 1110.519531 522.796875 1155.109375 C 575.363281 1207.320312 591.679688 1220.011719 568.476562 1191.371094 C 425.628906 1016.261719 337.53125 845.140625 313.605469 695.761719 C 310.703125 676.910156 308.167969 654.800781 308.167969 646.820312 C 308.167969 633.410156 309.253906 634.859375 324.480469 669.660156 C 333.179688 689.960938 346.597656 717.519531 353.847656 731.289062 Z M 526.421875 678 C 601.46875 745.429688 725.460938 842.601562 829.511719 915.109375 C 843.648438 924.890625 855.613281 934.679688 855.613281 936.859375 C 855.613281 938.671875 831.324219 952.449219 801.59375 967.308594 L 747.9375 994.5 L 733.796875 983.269531 C 688.117188 947.011719 590.230469 831.359375 539.109375 753.050781 C 516.269531 718.238281 475.300781 637.75 480.015625 637.75 C 481.101562 637.75 501.765625 655.878906 526.421875 678 Z M 183.8125 718.238281 C 183.085938 730.929688 182.722656 721.511719 182.722656 697.578125 C 182.722656 673.648438 183.085938 663.5 183.8125 674.738281 C 184.539062 686.339844 184.539062 705.921875 183.8125 718.238281 Z M 245.804688 808.878906 C 270.097656 858.179688 305.265625 913.660156 342.246094 960.058594 C 355.296875 976.738281 365.449219 991.238281 364.722656 991.960938 C 362.910156 993.78125 281.335938 962.960938 246.894531 947.011719 C 232.03125 940.480469 219.34375 935.769531 218.617188 936.5 C 214.992188 939.761719 278.4375 986.53125 304.902344 1000.308594 C 320.128906 1008.28125 350.21875 1020.609375 371.976562 1027.859375 C 412.941406 1041.269531 423.457031 1048.160156 447.023438 1077.890625 C 460.074219 1094.210938 453.910156 1092.390625 426.71875 1071.371094 C 418.019531 1064.480469 407.140625 1057.230469 402.789062 1054.691406 C 390.824219 1048.519531 327.742188 1036.921875 289.3125 1034.390625 C 260.671875 1032.210938 253.421875 1032.929688 245.804688 1038.011719 L 236.746094 1043.808594 L 228.765625 1017.710938 C 207.015625 943.390625 204.113281 872.691406 219.703125 776.25 C 220.792969 770.089844 221.878906 764.648438 222.601562 764.648438 C 223.328125 764.648438 233.84375 784.589844 245.804688 808.878906 Z M 1384.570312 976.019531 C 1399.800781 986.53125 1401.25 984.359375 1388.921875 969.851562 C 1375.871094 954.621094 1407.050781 975.289062 1426.269531 994.871094 C 1446.210938 1014.808594 1479.199219 1055.769531 1479.199219 1060.121094 C 1479.199219 1061.570312 1469.050781 1053.960938 1456.71875 1043.089844 C 1444.03125 1032.210938 1415.390625 1009.371094 1393.269531 991.601562 C 1343.238281 952.808594 1338.890625 944.839844 1384.570312 976.019531 Z M 940.453125 991.960938 L 984.320312 1020.25 L 962.566406 1020.96875 C 926.675781 1022.78125 871.566406 1028.949219 842.5625 1034.75 L 815.371094 1040.550781 L 793.980469 1027.5 C 782.019531 1020.25 772.230469 1013.359375 772.230469 1011.910156 C 772.230469 1008.640625 880.992188 964.410156 889.691406 964.050781 C 893.320312 964.050781 916.160156 976.738281 940.453125 991.960938 Z M 1254.421875 1016.261719 C 1273.269531 1031.121094 1289.21875 1043.089844 1289.941406 1042.359375 C 1290.671875 1041.640625 1283.421875 1028.949219 1274.359375 1014.441406 L 1257.679688 987.621094 L 1293.210938 1023.871094 C 1335.988281 1067.371094 1422.28125 1163.449219 1420.460938 1165.269531 C 1417.558594 1168.171875 1247.890625 1022.78125 1223.601562 996.679688 C 1209.101562 980.730469 1213.449219 983.628906 1254.421875 1016.261719 Z M 1280.160156 1210.941406 C 1291.761719 1219.289062 1301.550781 1227.261719 1301.550781 1229.070312 C 1301.550781 1233.429688 1277.980469 1246.839844 1270.371094 1246.839844 C 1265.660156 1246.839844 1260.21875 1241.039062 1254.421875 1230.890625 C 1247.171875 1217.109375 1246.441406 1213.480469 1250.070312 1205.511719 C 1252.238281 1200.429688 1255.140625 1196.078125 1256.589844 1196.078125 C 1257.679688 1196.078125 1268.191406 1202.96875 1280.160156 1210.941406 Z M 1299.378906 1289.261719 C 1297.929688 1299.039062 1295.390625 1310.640625 1293.941406 1315 C 1289.941406 1325.511719 1292.488281 1330.230469 1301.550781 1330.230469 C 1314.601562 1330.230469 1319.679688 1334.570312 1319.679688 1345.089844 C 1319.679688 1357.410156 1316.050781 1358.140625 1287.050781 1348.710938 C 1263.839844 1341.460938 1263.480469 1340.011719 1276.171875 1297.960938 C 1283.058594 1274.75 1284.511719 1272.21875 1292.851562 1272.21875 C 1301.550781 1272.21875 1301.910156 1272.941406 1299.378906 1289.261719 Z M 1361.011719 1300.859375 C 1365 1305.210938 1366.441406 1310.640625 1365 1315.359375 C 1363.179688 1321.519531 1364.269531 1322.609375 1372.609375 1321.890625 C 1384.941406 1320.800781 1387.46875 1327.691406 1378.050781 1337.109375 C 1366.441406 1348.710938 1361.011719 1346.539062 1354.480469 1326.960938 C 1344.691406 1297.230469 1347.589844 1286 1361.011719 1300.859375 Z M 1346.871094 1315.359375 C 1356.660156 1344.730469 1363.179688 1411.4375 1365.71875 1500.625 C 1367.539062 1574.222656 1365 1659.78125 1361.371094 1655.792969 C 1360.640625 1655.070312 1358.109375 1621.714844 1355.929688 1581.472656 C 1350.859375 1487.570312 1338.53125 1385.695312 1326.570312 1340.011719 C 1323.660156 1328.410156 1321.488281 1326.601562 1312.429688 1326.601562 C 1292.488281 1326.601562 1295.390625 1310.289062 1316.78125 1302.671875 C 1337.441406 1295.058594 1340.339844 1296.140625 1346.871094 1315.359375 Z M 1525.238281 1408.171875 C 1543.011719 1442.976562 1554.609375 1474.882812 1562.941406 1511.5 C 1572.378906 1554.640625 1571.289062 1566.242188 1560.410156 1535.429688 C 1555.691406 1521.652344 1550.980469 1509.6875 1550.261719 1508.597656 C 1549.171875 1507.871094 1549.171875 1519.113281 1549.890625 1533.617188 C 1551.710938 1564.433594 1550.621094 1561.167969 1535.03125 1491.558594 C 1529.960938 1467.628906 1521.621094 1434.277344 1516.539062 1417.238281 C 1503.128906 1370.105469 1503.488281 1371.195312 1508.199219 1377.355469 C 1510.378906 1380.253906 1517.988281 1394.035156 1525.238281 1408.171875 Z M 719.660156 1847.21875 C 736.335938 1870.421875 765.703125 1920.816406 770.054688 1934.230469 C 771.503906 1939.671875 768.601562 1948.371094 759.539062 1962.875 C 752.652344 1974.835938 746.488281 1981.726562 745.398438 1978.824219 C 744.671875 1975.925781 739.597656 1956.710938 733.796875 1935.683594 C 728.359375 1914.652344 716.757812 1879.484375 708.058594 1857.734375 C 699.355469 1835.617188 691.019531 1815.3125 689.929688 1812.414062 C 687.753906 1805.527344 699.355469 1818.941406 719.660156 1847.21875 Z M 719.660156 1847.21875 "/>
<path fill-rule="nonzero" fill="rgb(0%, 0%, 0%)" fill-opacity="1" d="M 1018.761719 1266.421875 C 1018.761719 1267.140625 1021.660156 1270.039062 1025.289062 1272.578125 C 1030.730469 1277.289062 1031.089844 1276.929688 1026.378906 1271.128906 C 1021.660156 1265.328125 1018.761719 1263.519531 1018.761719 1266.421875 Z M 1018.761719 1266.421875 "/>
<path fill-rule="nonzero" fill="rgb(0%, 0%, 0%)" fill-opacity="1" d="M 1010.058594 1281.28125 C 1013.320312 1286.359375 1016.949219 1289.980469 1017.671875 1288.890625 C 1019.851562 1286.71875 1010.421875 1272.21875 1006.800781 1272.21875 C 1005.351562 1272.21875 1006.800781 1276.199219 1010.058594 1281.28125 Z M 1010.058594 1281.28125 "/>
<path fill-rule="nonzero" fill="rgb(0%, 0%, 0%)" fill-opacity="1" d="M 540.199219 1397.296875 C 540.199219 1404.183594 560.5 1427.023438 563.761719 1423.761719 C 567.390625 1420.136719 563.039062 1404.183594 556.148438 1397.65625 C 548.898438 1390.410156 540.199219 1390.046875 540.199219 1397.296875 Z M 540.199219 1397.296875 "/>
<path fill-rule="nonzero" fill="rgb(0%, 0%, 0%)" fill-opacity="1" d="M 626.484375 1506.425781 C 619.234375 1509.6875 612.34375 1514.398438 611.253906 1516.9375 C 608.355469 1524.550781 638.8125 1529.265625 670.714844 1526.363281 L 697.90625 1523.828125 L 677.242188 1514.035156 C 648.960938 1500.984375 642.074219 1499.898438 626.484375 1506.425781 Z M 626.484375 1506.425781 "/>
<path fill-rule="nonzero" fill="rgb(0%, 0%, 0%)" fill-opacity="1" d="M 638.085938 1565.878906 C 638.085938 1579.660156 667.089844 1585.460938 685.21875 1574.945312 C 694.28125 1569.871094 693.917969 1569.871094 678.691406 1569.507812 C 670.351562 1569.507812 657.660156 1566.96875 650.773438 1564.433594 C 638.8125 1559.355469 638.085938 1559.355469 638.085938 1565.878906 Z M 638.085938 1565.878906 "/>
<path fill-rule="nonzero" fill="rgb(0%, 0%, 0%)" fill-opacity="1" d="M 1499.859375 531.171875 C 1499.140625 531.890625 1501.679688 544.578125 1505.660156 559.089844 C 1509.648438 573.21875 1517.269531 606.210938 1522.339844 631.949219 L 1531.769531 679.089844 L 1576.359375 702.289062 L 1620.589844 725.488281 L 1630.019531 704.828125 C 1638.71875 684.519531 1656.851562 626.519531 1656.851562 618.179688 C 1656.851562 608.390625 1506.390625 524.640625 1499.859375 531.171875 Z M 1499.859375 531.171875 "/>
<path fill-rule="nonzero" fill="rgb(0%, 0%, 0%)" fill-opacity="1" d="M 1520.890625 797.28125 L 1520.890625 865.070312 L 1548.078125 881.03125 C 1621.320312 923.808594 1718.839844 1012.628906 1775.039062 1088.039062 C 1828.691406 1160.191406 1877.640625 1247.929688 1913.171875 1335.660156 C 1923.679688 1361.410156 1932.019531 1379.53125 1932.390625 1375.542969 C 1932.75 1354.519531 1896.128906 1228.710938 1876.550781 1184.121094 C 1866.039062 1160.550781 1873.289062 1169.621094 1893.949219 1206.589844 C 1941.808594 1291.800781 1969.730469 1368.292969 1991.839844 1477.058594 L 2003.808594 1535.066406 L 2006.710938 1513.671875 C 2010.328125 1486.847656 2006.339844 1402.734375 1999.460938 1353.070312 C 1972.269531 1157.289062 1862.78125 981.820312 1674.980469 831.71875 C 1637.988281 802.359375 1559.320312 748.328125 1535.390625 736.371094 L 1520.890625 729.121094 Z M 1520.890625 797.28125 "/>
</svg>
